<?xml version="1.0" encoding="UTF-8"?>
<svg id="Calque_2" data-name="Calque 2" xmlns="http://www.w3.org/2000/svg" viewBox="0 0 199.75 51.88">
  <defs>
    <style>
      .cls-1 {
        fill: #010101;
      }

      .cls-2 {
        fill: none;
        stroke: #010101;
        stroke-miterlimit: 10;
        stroke-width: .95px;
      }
    </style>
  </defs>
  <g id="Calque_1-2" data-name="Calque 1">
    <g>
      <path class="cls-1" d="m116.36,28.74h-.7v4.4h-2.81v-14.66h3.51c2.71,0,4.89,2.3,4.89,5.13s-2.18,5.13-4.89,5.13Zm0-7.33h-.7v4.4h.7c1.16,0,2.08-.96,2.08-2.2s-.92-2.2-2.08-2.2Z"/>
      <path class="cls-1" d="m130.29,33.13l-.36-2.2h-2.79l-.4,2.2h-2.83l2.51-14.66h4.21l2.53,14.66h-2.87Zm-1.76-10.35l-.9,5.21h1.8l-.9-5.21Z"/>
      <path class="cls-1" d="m143.99,33.13l-1.54-4.42c-.08,0-.2,0-.28.02h-.9v4.4h-2.81v-14.66h3.51c2.71,0,4.89,2.3,4.89,5.13,0,1.55-.68,3.02-1.82,4.02l1.92,5.51h-2.97Zm-2.02-11.73h-.7v4.4h.7c1.16,0,2.08-.96,2.08-2.2s-.92-2.2-2.08-2.2Z"/>
      <path class="cls-1" d="m152.57,33.13v-14.66h2.81v14.66h-2.81Z"/>
      <path class="cls-1" d="m165.26,33.49c-2.28,0-4.13-1.95-4.13-4.34v-.42h2.81v.42c0,.78.58,1.4,1.32,1.4.8,0,1.36-.59,1.36-1.4,0-.57,0-1.13-1.88-2.01-1.64-.8-3.51-2.01-3.51-4.75,0-2.37,1.82-4.29,4.11-4.29s4.09,1.91,4.09,4.27v.5h-2.81v-.5c0-.75-.56-1.34-1.28-1.34s-1.3.63-1.3,1.36c0,.54,0,1.17,1.86,2.05,1.74.86,3.53,2.05,3.53,4.71,0,2.43-1.82,4.34-4.17,4.34Z"/>
    </g>
    <g>
      <g>
        <g>
          <path class="cls-1" d="m103.06,17.62c-.45-.41-2.52-2.19-5.48-2.69v.21c1.84.78,4.61,2.85,4.76,7.62,0,.14.11.26.25.26s.24-.11.25-.25l.31-4.94c0-.08-.02-.16-.08-.21Z"/>
          <path class="cls-1" d="m102.12,31.89c-3.85,4.56-12.16,4.59-12.81-5.62-.53-7.91,3.11-10.39,4.82-11.12v-.18c-2.86.47-8.32,2.54-8.32,11.27,0,7.23,5.57,10.74,9.38,10.74,4.27,0,6.37-2.78,7.34-4.8.13-.28-.22-.52-.41-.29Z"/>
        </g>
        <path class="cls-1" d="m53.44,36.32c-1.02-.05-1.92-.43-1.92-2.15v-16.93c0-.09-.04-.17-.12-.22l-2.49-1.7c-.2-.13-.44.06-.38.3.07.28.09.6.09,1.01v17.55c0,1.72-.88,2.1-1.89,2.15-.13,0-.24.12-.24.27v.13h7.19v-.13c0-.14-.11-.26-.24-.27Z"/>
        <path class="cls-1" d="m82.89,36.32c-1.02-.05-1.92-.43-1.92-2.15v-16.93c0-.09-.04-.17-.12-.22l-2.49-1.7c-.2-.13-.44.06-.38.3.07.28.09.6.09,1.01v17.55c0,1.72-.88,2.1-1.89,2.15-.13,0-.24.12-.24.27v.13h7.19v-.13c0-.14-.11-.26-.24-.27Z"/>
        <g>
          <path class="cls-1" d="m66.79,35.33V15.5c0-.15-.11-.27-.25-.27h-2.48c-.14,0-.25.12-.25.27v19.08h.02s0,.13,0,.13c0,.09.04.18.12.23l2.55,1.72c.2.13.44-.06.38-.3-.07-.29-.09-.61-.09-1.02Z"/>
          <path class="cls-1" d="m56.81,15.35v-.12s-.01.14-.01.14c-.02.03-.03.07-.03.11l-.33,5.31-.04.66c-.01.15.11.29.25.29h.35v-.23s0-.01,0-.02c.38-3.81,2.39-5.43,3.73-5.99v-.27h-3.71c-.09,0-.16.05-.21.12Z"/>
          <path class="cls-1" d="m73.83,15.48s0-.01,0-.02l-.02-.23v.15c-.04-.09-.13-.16-.23-.16h-3.71v.24c1.39.56,3.54,2.15,3.74,6,0,.04.02.08.04.12v.14s.32,0,.32,0c.15,0,.26-.13.25-.29l-.34-5.24-.04-.73Z"/>
        </g>
      </g>
      <g>
        <path class="cls-2" d="m.48.48v22.02h0c0,4.14,1.08,7.99,2.71,11.44L36.65.48H.48Z"/>
        <path class="cls-1" d="m36.65,5.03L4.78,36.9c5.34,8.94,13.75,14.54,13.75,14.54h.07s18.05-11.99,18.05-28.95h0V5.03Z"/>
      </g>
      <rect class="cls-1" x="112.56" y=".37" width=".7" height="51.17"/>
    </g>
    <g>
      <path class="cls-1" d="m117.83,50.15h-1.41v1.09h1.68v.59h-2.44v-3.81h2.44v.59h-1.68v.96h1.41v.59Z"/>
      <path class="cls-1" d="m121.72,51.82h-.76l-1.54-2.57h-.02v2.57h-.76v-3.81h.76l1.54,2.57h.02v-2.57h.76v3.81Z"/>
      <path class="cls-1" d="m124.41,50.83c0-.15-.05-.26-.15-.35s-.28-.17-.54-.25c-.44-.13-.77-.29-1-.47-.23-.18-.34-.42-.34-.74s.13-.57.38-.77c.26-.2.58-.3.98-.3.42,0,.76.11,1.02.32.26.21.38.49.37.84v.02h-.75c0-.19-.06-.34-.17-.44s-.28-.15-.48-.15c-.19,0-.33.05-.44.14-.1.09-.15.21-.15.35,0,.13.06.24.17.32.11.08.3.17.58.26.42.12.74.27.96.46.22.19.33.44.33.76s-.13.58-.38.77c-.25.19-.59.28-1.01.28s-.76-.1-1.06-.31-.44-.51-.43-.91v-.02h.75c0,.23.07.39.2.5s.31.16.54.16c.2,0,.36-.04.47-.13s.16-.2.16-.34Z"/>
      <path class="cls-1" d="m127.91,50.15h-1.41v1.09h1.68v.59h-2.44v-3.81h2.44v.59h-1.68v.96h1.41v.59Z"/>
      <path class="cls-1" d="m129.53,51.82h-.76v-3.81h.76v3.81Z"/>
      <path class="cls-1" d="m133.21,51.3c-.12.16-.3.29-.53.4-.24.11-.54.17-.91.17-.46,0-.84-.14-1.13-.43-.29-.29-.44-.67-.44-1.13v-.8c0-.46.14-.84.43-1.13s.65-.44,1.1-.44.82.11,1.07.33c.25.22.37.52.36.88v.02h-.72c0-.2-.06-.36-.18-.47-.12-.11-.29-.17-.51-.17s-.42.09-.57.27c-.14.18-.21.41-.21.7v.8c0,.29.07.52.22.7.15.18.34.27.59.27.18,0,.32-.02.43-.06.11-.04.19-.08.24-.14v-.74h-.73v-.53h1.5v1.47Z"/>
      <path class="cls-1" d="m136.94,51.82h-.76l-1.54-2.57h-.02v2.57h-.76v-3.81h.76l1.54,2.57h.02v-2.57h.76v3.81Z"/>
      <path class="cls-1" d="m139.82,50.15h-1.41v1.09h1.68v.59h-2.44v-3.81h2.44v.59h-1.68v.96h1.41v.59Z"/>
      <path class="cls-1" d="m142.59,50.82h.02l.98-2.81h1v3.81h-.76v-2.6h-.02s-.94,2.6-.94,2.6h-.52l-.94-2.61h-.02v2.61h-.76v-3.81h1l.97,2.81Z"/>
      <path class="cls-1" d="m147.46,50.15h-1.41v1.09h1.68v.59h-2.44v-3.81h2.44v.59h-1.68v.96h1.41v.59Z"/>
      <path class="cls-1" d="m151.34,51.82h-.76l-1.54-2.57h-.02v2.57h-.76v-3.81h.76l1.54,2.57h.02v-2.57h.76v3.81Z"/>
      <path class="cls-1" d="m154.63,48.6h-1.09v3.22h-.76v-3.22h-1.07v-.59h2.93v.59Z"/>
    </g>
    <g>
      <path class="cls-1" d="m157.69,50.83c0-.15-.05-.26-.15-.35s-.28-.17-.54-.25c-.44-.13-.77-.29-1-.47-.23-.18-.34-.42-.34-.74s.13-.57.38-.77c.26-.2.58-.3.98-.3.42,0,.76.11,1.02.32.26.21.38.49.37.84v.02h-.75c0-.19-.06-.34-.17-.44s-.28-.15-.48-.15c-.19,0-.33.05-.44.14-.1.09-.15.21-.15.35,0,.13.06.24.17.32.11.08.3.17.58.26.42.12.74.27.96.46.22.19.33.44.33.76s-.13.58-.38.77c-.25.19-.59.28-1.01.28s-.76-.1-1.06-.31c-.29-.2-.44-.51-.43-.91v-.02h.75c0,.23.07.39.2.5s.31.16.54.16c.2,0,.36-.04.47-.13s.16-.2.16-.34Z"/>
      <path class="cls-1" d="m162.03,48.01v2.49c0,.43-.14.77-.43,1.01-.28.24-.65.36-1.11.36s-.82-.12-1.1-.36c-.28-.24-.42-.58-.42-1.01v-2.49h.77v2.49c0,.25.07.45.2.58.14.13.32.2.55.2s.42-.07.56-.2c.14-.13.21-.33.21-.58v-2.49h.77Z"/>
      <path class="cls-1" d="m163.46,50.44v1.38h-.76v-3.81h1.46c.44,0,.78.11,1.03.34s.38.52.38.88-.13.66-.38.88-.6.33-1.03.33h-.69Zm0-.59h.69c.21,0,.37-.06.48-.17s.16-.26.16-.44-.05-.33-.16-.45-.27-.18-.49-.18h-.69v1.25Z"/>
      <path class="cls-1" d="m168.29,50.15h-1.41v1.09h1.68v.59h-2.44v-3.81h2.44v.59h-1.68v.96h1.41v.59Zm-.8-3.21h.85v.02s-.72.68-.72.68h-.65l.52-.7Z"/>
      <path class="cls-1" d="m169.86,50.3v1.52h-.76v-3.81h1.32c.43,0,.77.1,1.02.3.25.2.37.47.37.83,0,.2-.05.36-.16.51-.1.14-.26.26-.45.34.23.07.39.18.49.33.1.16.15.35.15.58v.28c0,.11.01.22.04.33s.08.2.15.26v.06h-.79c-.07-.06-.11-.15-.13-.28-.02-.13-.03-.25-.03-.37v-.27c0-.19-.05-.34-.16-.44s-.25-.16-.44-.16h-.61Zm0-.59h.54c.21,0,.37-.05.48-.14s.16-.23.16-.4-.05-.31-.16-.42-.26-.15-.46-.15h-.55v1.11Z"/>
      <path class="cls-1" d="m173.32,51.82h-.76v-3.81h.76v3.81Z"/>
      <path class="cls-1" d="m176.26,50.15h-1.41v1.09h1.68v.59h-2.44v-3.81h2.44v.59h-1.68v.96h1.41v.59Z"/>
      <path class="cls-1" d="m180.08,48.01v2.49c0,.43-.14.77-.43,1.01-.28.24-.65.36-1.11.36s-.82-.12-1.1-.36c-.28-.24-.42-.58-.42-1.01v-2.49h.77v2.49c0,.25.07.45.2.58.14.13.32.2.55.2s.42-.07.56-.2c.14-.13.21-.33.21-.58v-2.49h.77Z"/>
      <path class="cls-1" d="m181.51,50.3v1.52h-.76v-3.81h1.32c.43,0,.77.1,1.02.3.25.2.37.47.37.83,0,.2-.05.36-.16.51-.1.14-.26.26-.45.34.23.07.39.18.49.33.1.16.15.35.15.58v.28c0,.11.01.22.04.33s.08.2.15.26v.06h-.79c-.07-.06-.11-.15-.13-.28-.02-.13-.03-.25-.03-.37v-.27c0-.19-.05-.34-.16-.44-.1-.11-.25-.16-.44-.16h-.61Zm0-.59h.54c.21,0,.37-.05.48-.14.1-.09.16-.23.16-.4s-.05-.31-.16-.42c-.11-.1-.26-.15-.46-.15h-.55v1.11Z"/>
      <path class="cls-1" d="m186.26,50.44v1.38h-.76v-3.81h1.46c.44,0,.78.11,1.03.34.25.22.38.52.38.88s-.13.66-.38.88c-.25.22-.6.33-1.03.33h-.69Zm0-.59h.69c.21,0,.37-.06.48-.17.11-.12.16-.26.16-.44s-.05-.33-.16-.45c-.11-.12-.27-.18-.49-.18h-.69v1.25Z"/>
      <path class="cls-1" d="m189.67,50.3v1.52h-.76v-3.81h1.32c.43,0,.77.1,1.02.3.25.2.37.47.37.83,0,.2-.05.36-.16.51-.1.14-.26.26-.45.34.23.07.39.18.49.33.1.16.15.35.15.58v.28c0,.11.01.22.04.33s.08.2.15.26v.06h-.79c-.07-.06-.11-.15-.13-.28-.02-.13-.03-.25-.03-.37v-.27c0-.19-.05-.34-.16-.44-.1-.11-.25-.16-.44-.16h-.61Zm0-.59h.54c.21,0,.37-.05.48-.14.1-.09.16-.23.16-.4s-.05-.31-.16-.42c-.11-.1-.26-.15-.46-.15h-.55v1.11Z"/>
      <path class="cls-1" d="m193.14,51.82h-.76v-3.81h.76v3.81Z"/>
      <path class="cls-1" d="m195.2,50.79l.05.21h.02l.04-.2.83-2.78h.81l-1.3,3.81h-.78l-1.29-3.81h.81l.82,2.78Z"/>
      <path class="cls-1" d="m199.49,50.15h-1.41v1.09h1.68v.59h-2.44v-3.81h2.44v.59h-1.68v.96h1.41v.59Zm-.8-3.21h.85v.02s-.72.68-.72.68h-.65l.52-.7Z"/>
    </g>
  </g>
</svg>